<mxfile host="Electron" agent="Mozilla/5.0 (Macintosh; Intel Mac OS X 10_15_7) AppleWebKit/537.36 (KHTML, like Gecko) draw.io/26.0.16 Chrome/132.0.6834.196 Electron/34.2.0 Safari/537.36" version="26.0.16">
  <diagram name="Page-1" id="pNOPrclIeguZw6u4pX0n">
    <mxGraphModel dx="1093" dy="1878" grid="1" gridSize="10" guides="1" tooltips="1" connect="1" arrows="1" fold="1" page="1" pageScale="1" pageWidth="827" pageHeight="1169" math="0" shadow="0">
      <root>
        <mxCell id="0" />
        <mxCell id="1" parent="0" />
        <mxCell id="UPGkTEGfNmWBVER3Gdnw-3" value="" style="rounded=0;whiteSpace=wrap;html=1;" vertex="1" parent="1">
          <mxGeometry x="40" y="-150" width="1040" height="640" as="geometry" />
        </mxCell>
        <mxCell id="UPGkTEGfNmWBVER3Gdnw-1" value="" style="shape=note;whiteSpace=wrap;html=1;backgroundOutline=1;darkOpacity=0.05;" vertex="1" parent="1">
          <mxGeometry x="880" y="320" width="160" height="110" as="geometry" />
        </mxCell>
        <mxCell id="hkvhb1X0sHViUeXnGfo4-16" style="edgeStyle=orthogonalEdgeStyle;rounded=0;orthogonalLoop=1;jettySize=auto;html=1;exitX=0.5;exitY=1;exitDx=0;exitDy=0;entryX=0.5;entryY=0;entryDx=0;entryDy=0;strokeColor=default;align=center;verticalAlign=middle;fontFamily=Helvetica;fontSize=11;fontColor=default;labelBackgroundColor=default;endArrow=classic;endFill=1;startArrow=classic;startFill=1;" parent="1" source="hkvhb1X0sHViUeXnGfo4-1" target="hkvhb1X0sHViUeXnGfo4-6" edge="1">
          <mxGeometry relative="1" as="geometry" />
        </mxCell>
        <mxCell id="hkvhb1X0sHViUeXnGfo4-1" value="&lt;div&gt;Wordpress&lt;/div&gt;&lt;div&gt;172.18.0.2&lt;br&gt;&lt;/div&gt;" style="rounded=0;whiteSpace=wrap;html=1;" parent="1" vertex="1">
          <mxGeometry x="120" y="200" width="120" height="60" as="geometry" />
        </mxCell>
        <mxCell id="hkvhb1X0sHViUeXnGfo4-18" style="edgeStyle=orthogonalEdgeStyle;shape=connector;rounded=0;orthogonalLoop=1;jettySize=auto;html=1;exitX=0.5;exitY=1;exitDx=0;exitDy=0;entryX=0.5;entryY=0;entryDx=0;entryDy=0;strokeColor=default;align=center;verticalAlign=middle;fontFamily=Helvetica;fontSize=11;fontColor=default;labelBackgroundColor=default;endArrow=classic;startArrow=classic;startFill=1;" parent="1" source="hkvhb1X0sHViUeXnGfo4-2" target="hkvhb1X0sHViUeXnGfo4-6" edge="1">
          <mxGeometry relative="1" as="geometry" />
        </mxCell>
        <mxCell id="hkvhb1X0sHViUeXnGfo4-2" value="&lt;div&gt;Mysql&lt;/div&gt;&lt;div&gt;172.18.0.3&lt;br&gt;&lt;/div&gt;" style="rounded=0;whiteSpace=wrap;html=1;" parent="1" vertex="1">
          <mxGeometry x="280" y="200" width="120" height="60" as="geometry" />
        </mxCell>
        <mxCell id="hkvhb1X0sHViUeXnGfo4-20" style="edgeStyle=orthogonalEdgeStyle;shape=connector;rounded=0;orthogonalLoop=1;jettySize=auto;html=1;exitX=0.5;exitY=1;exitDx=0;exitDy=0;entryX=0.5;entryY=0;entryDx=0;entryDy=0;strokeColor=default;align=center;verticalAlign=middle;fontFamily=Helvetica;fontSize=11;fontColor=default;labelBackgroundColor=default;endArrow=classic;startArrow=classic;startFill=1;" parent="1" source="hkvhb1X0sHViUeXnGfo4-3" target="hkvhb1X0sHViUeXnGfo4-6" edge="1">
          <mxGeometry relative="1" as="geometry" />
        </mxCell>
        <mxCell id="hkvhb1X0sHViUeXnGfo4-3" value="&lt;div&gt;admin-requests&lt;/div&gt;&lt;div&gt;172.18.0.5&lt;br&gt;&lt;/div&gt;" style="rounded=0;whiteSpace=wrap;html=1;" parent="1" vertex="1">
          <mxGeometry x="600" y="200" width="120" height="60" as="geometry" />
        </mxCell>
        <mxCell id="hkvhb1X0sHViUeXnGfo4-21" style="edgeStyle=orthogonalEdgeStyle;shape=connector;rounded=0;orthogonalLoop=1;jettySize=auto;html=1;exitX=0.5;exitY=1;exitDx=0;exitDy=0;entryX=0.5;entryY=0;entryDx=0;entryDy=0;strokeColor=default;align=center;verticalAlign=middle;fontFamily=Helvetica;fontSize=11;fontColor=default;labelBackgroundColor=default;endArrow=classic;startArrow=classic;startFill=1;" parent="1" source="hkvhb1X0sHViUeXnGfo4-4" target="hkvhb1X0sHViUeXnGfo4-6" edge="1">
          <mxGeometry relative="1" as="geometry">
            <Array as="points">
              <mxPoint x="820" y="330" />
              <mxPoint x="500" y="330" />
            </Array>
          </mxGeometry>
        </mxCell>
        <mxCell id="hkvhb1X0sHViUeXnGfo4-36" style="edgeStyle=orthogonalEdgeStyle;shape=connector;rounded=0;orthogonalLoop=1;jettySize=auto;html=1;exitX=0.5;exitY=0;exitDx=0;exitDy=0;entryX=0.5;entryY=1;entryDx=0;entryDy=0;strokeColor=default;align=center;verticalAlign=middle;fontFamily=Helvetica;fontSize=11;fontColor=default;labelBackgroundColor=default;startArrow=classic;startFill=1;endArrow=classic;" parent="1" source="hkvhb1X0sHViUeXnGfo4-4" target="hkvhb1X0sHViUeXnGfo4-29" edge="1">
          <mxGeometry relative="1" as="geometry">
            <Array as="points">
              <mxPoint x="820" y="30" />
              <mxPoint x="500" y="30" />
            </Array>
          </mxGeometry>
        </mxCell>
        <mxCell id="hkvhb1X0sHViUeXnGfo4-4" value="&lt;div&gt;router&lt;/div&gt;&lt;div&gt;172.18.0.6&lt;br&gt;&lt;/div&gt;&lt;div&gt;192.168.0.6&lt;br&gt;&lt;/div&gt;" style="rounded=0;whiteSpace=wrap;html=1;" parent="1" vertex="1">
          <mxGeometry x="760" y="150" width="120" height="60" as="geometry" />
        </mxCell>
        <mxCell id="hkvhb1X0sHViUeXnGfo4-19" style="edgeStyle=orthogonalEdgeStyle;shape=connector;rounded=0;orthogonalLoop=1;jettySize=auto;html=1;exitX=0.5;exitY=1;exitDx=0;exitDy=0;entryX=0.5;entryY=0;entryDx=0;entryDy=0;strokeColor=default;align=center;verticalAlign=middle;fontFamily=Helvetica;fontSize=11;fontColor=default;labelBackgroundColor=default;endArrow=classic;startArrow=classic;startFill=1;" parent="1" source="hkvhb1X0sHViUeXnGfo4-5" target="hkvhb1X0sHViUeXnGfo4-6" edge="1">
          <mxGeometry relative="1" as="geometry" />
        </mxCell>
        <mxCell id="hkvhb1X0sHViUeXnGfo4-5" value="&lt;div&gt;phpmyadmin&lt;/div&gt;&lt;div&gt;172.18.0.4&lt;br&gt;&lt;/div&gt;" style="rounded=0;whiteSpace=wrap;html=1;" parent="1" vertex="1">
          <mxGeometry x="440" y="200" width="120" height="60" as="geometry" />
        </mxCell>
        <mxCell id="hkvhb1X0sHViUeXnGfo4-6" value="&lt;div&gt;LAN (Docker bridge network)&lt;/div&gt;&lt;div&gt;172.18.0.0/16&lt;br&gt;&lt;/div&gt;" style="rounded=0;whiteSpace=wrap;html=1;" parent="1" vertex="1">
          <mxGeometry x="280" y="400" width="440" height="60" as="geometry" />
        </mxCell>
        <mxCell id="hkvhb1X0sHViUeXnGfo4-12" style="rounded=0;orthogonalLoop=1;jettySize=auto;html=1;exitX=0.5;exitY=0;exitDx=0;exitDy=0;" parent="1" source="hkvhb1X0sHViUeXnGfo4-7" target="hkvhb1X0sHViUeXnGfo4-1" edge="1">
          <mxGeometry relative="1" as="geometry" />
        </mxCell>
        <mxCell id="hkvhb1X0sHViUeXnGfo4-7" value="D" style="rounded=0;whiteSpace=wrap;html=1;" parent="1" vertex="1">
          <mxGeometry x="120" y="280" width="40" height="40" as="geometry" />
        </mxCell>
        <mxCell id="hkvhb1X0sHViUeXnGfo4-13" style="rounded=0;orthogonalLoop=1;jettySize=auto;html=1;exitX=0.5;exitY=0;exitDx=0;exitDy=0;" parent="1" source="hkvhb1X0sHViUeXnGfo4-8" target="hkvhb1X0sHViUeXnGfo4-2" edge="1">
          <mxGeometry relative="1" as="geometry" />
        </mxCell>
        <mxCell id="hkvhb1X0sHViUeXnGfo4-8" value="D" style="rounded=0;whiteSpace=wrap;html=1;" parent="1" vertex="1">
          <mxGeometry x="280" y="280" width="40" height="40" as="geometry" />
        </mxCell>
        <mxCell id="hkvhb1X0sHViUeXnGfo4-9" value="D" style="rounded=0;whiteSpace=wrap;html=1;" parent="1" vertex="1">
          <mxGeometry x="890" y="350" width="40" height="40" as="geometry" />
        </mxCell>
        <mxCell id="hkvhb1X0sHViUeXnGfo4-15" style="edgeStyle=none;shape=connector;rounded=0;orthogonalLoop=1;jettySize=auto;html=1;exitX=0.5;exitY=0;exitDx=0;exitDy=0;strokeColor=default;align=center;verticalAlign=middle;fontFamily=Helvetica;fontSize=11;fontColor=default;labelBackgroundColor=default;endArrow=classic;" parent="1" source="hkvhb1X0sHViUeXnGfo4-10" target="hkvhb1X0sHViUeXnGfo4-4" edge="1">
          <mxGeometry relative="1" as="geometry" />
        </mxCell>
        <mxCell id="hkvhb1X0sHViUeXnGfo4-10" value="D" style="rounded=0;whiteSpace=wrap;html=1;" parent="1" vertex="1">
          <mxGeometry x="760" y="230" width="40" height="40" as="geometry" />
        </mxCell>
        <mxCell id="hkvhb1X0sHViUeXnGfo4-33" style="edgeStyle=orthogonalEdgeStyle;shape=connector;rounded=0;orthogonalLoop=1;jettySize=auto;html=1;exitX=0.5;exitY=0;exitDx=0;exitDy=0;entryX=0.5;entryY=1;entryDx=0;entryDy=0;strokeColor=default;align=center;verticalAlign=middle;fontFamily=Helvetica;fontSize=11;fontColor=default;labelBackgroundColor=default;endArrow=classic;startArrow=classic;startFill=1;" parent="1" source="hkvhb1X0sHViUeXnGfo4-22" target="hkvhb1X0sHViUeXnGfo4-29" edge="1">
          <mxGeometry relative="1" as="geometry" />
        </mxCell>
        <mxCell id="hkvhb1X0sHViUeXnGfo4-22" value="&lt;div&gt;exploit&lt;/div&gt;&lt;div&gt;192.168.0.5&lt;br&gt;&lt;/div&gt;" style="rounded=0;whiteSpace=wrap;html=1;" parent="1" vertex="1">
          <mxGeometry x="120" y="100" width="120" height="60" as="geometry" />
        </mxCell>
        <mxCell id="hkvhb1X0sHViUeXnGfo4-34" style="edgeStyle=orthogonalEdgeStyle;shape=connector;rounded=0;orthogonalLoop=1;jettySize=auto;html=1;exitX=0.5;exitY=0;exitDx=0;exitDy=0;entryX=0.5;entryY=1;entryDx=0;entryDy=0;strokeColor=default;align=center;verticalAlign=middle;fontFamily=Helvetica;fontSize=11;fontColor=default;labelBackgroundColor=default;startArrow=classic;startFill=1;endArrow=classic;" parent="1" source="hkvhb1X0sHViUeXnGfo4-23" target="hkvhb1X0sHViUeXnGfo4-29" edge="1">
          <mxGeometry relative="1" as="geometry" />
        </mxCell>
        <mxCell id="hkvhb1X0sHViUeXnGfo4-23" value="&lt;div&gt;requests-0&lt;/div&gt;&lt;div&gt;192.168.0.0/24&lt;/div&gt;" style="rounded=0;whiteSpace=wrap;html=1;" parent="1" vertex="1">
          <mxGeometry x="280" y="100" width="120" height="60" as="geometry" />
        </mxCell>
        <mxCell id="hkvhb1X0sHViUeXnGfo4-35" style="edgeStyle=orthogonalEdgeStyle;shape=connector;rounded=0;orthogonalLoop=1;jettySize=auto;html=1;exitX=0.5;exitY=0;exitDx=0;exitDy=0;entryX=0.5;entryY=1;entryDx=0;entryDy=0;strokeColor=default;align=center;verticalAlign=middle;fontFamily=Helvetica;fontSize=11;fontColor=default;labelBackgroundColor=default;startArrow=classic;startFill=1;endArrow=classic;" parent="1" source="hkvhb1X0sHViUeXnGfo4-24" target="hkvhb1X0sHViUeXnGfo4-29" edge="1">
          <mxGeometry relative="1" as="geometry" />
        </mxCell>
        <mxCell id="hkvhb1X0sHViUeXnGfo4-24" value="&lt;div&gt;requests-39&lt;/div&gt;&lt;div&gt;192.168.0.0/24&lt;/div&gt;" style="rounded=0;whiteSpace=wrap;html=1;" parent="1" vertex="1">
          <mxGeometry x="600" y="100" width="120" height="60" as="geometry" />
        </mxCell>
        <mxCell id="hkvhb1X0sHViUeXnGfo4-25" value="&lt;font style=&quot;font-size: 30px;&quot;&gt;...&lt;/font&gt;" style="text;html=1;align=center;verticalAlign=middle;whiteSpace=wrap;rounded=0;fontFamily=Helvetica;fontSize=11;fontColor=default;labelBackgroundColor=default;" parent="1" vertex="1">
          <mxGeometry x="470" y="115" width="60" height="30" as="geometry" />
        </mxCell>
        <mxCell id="hkvhb1X0sHViUeXnGfo4-27" value="" style="endArrow=none;html=1;rounded=0;strokeColor=default;align=center;verticalAlign=middle;fontFamily=Helvetica;fontSize=11;fontColor=default;labelBackgroundColor=default;edgeStyle=orthogonalEdgeStyle;" parent="1" edge="1">
          <mxGeometry width="50" height="50" relative="1" as="geometry">
            <mxPoint x="420" y="129.58" as="sourcePoint" />
            <mxPoint x="470" y="129.58" as="targetPoint" />
          </mxGeometry>
        </mxCell>
        <mxCell id="hkvhb1X0sHViUeXnGfo4-28" value="" style="endArrow=none;html=1;rounded=0;strokeColor=default;align=center;verticalAlign=middle;fontFamily=Helvetica;fontSize=11;fontColor=default;labelBackgroundColor=default;edgeStyle=orthogonalEdgeStyle;" parent="1" edge="1">
          <mxGeometry width="50" height="50" relative="1" as="geometry">
            <mxPoint x="530" y="129.88000000000002" as="sourcePoint" />
            <mxPoint x="580" y="129.88000000000002" as="targetPoint" />
          </mxGeometry>
        </mxCell>
        <mxCell id="hkvhb1X0sHViUeXnGfo4-29" value="&lt;div&gt;WAN (Docker bridge network)&lt;/div&gt;&lt;div&gt;192.168.0.0/16&lt;br&gt;&lt;/div&gt;" style="rounded=0;whiteSpace=wrap;html=1;" parent="1" vertex="1">
          <mxGeometry x="280" y="-100" width="440" height="60" as="geometry" />
        </mxCell>
        <mxCell id="hkvhb1X0sHViUeXnGfo4-38" style="edgeStyle=none;shape=connector;rounded=0;orthogonalLoop=1;jettySize=auto;html=1;exitX=0.5;exitY=1;exitDx=0;exitDy=0;strokeColor=default;align=center;verticalAlign=middle;fontFamily=Helvetica;fontSize=11;fontColor=default;labelBackgroundColor=default;startArrow=none;startFill=0;endArrow=classic;" parent="1" source="hkvhb1X0sHViUeXnGfo4-30" target="hkvhb1X0sHViUeXnGfo4-23" edge="1">
          <mxGeometry relative="1" as="geometry" />
        </mxCell>
        <mxCell id="hkvhb1X0sHViUeXnGfo4-30" value="D" style="rounded=0;whiteSpace=wrap;html=1;" parent="1" vertex="1">
          <mxGeometry x="280" y="40" width="40" height="40" as="geometry" />
        </mxCell>
        <mxCell id="hkvhb1X0sHViUeXnGfo4-37" style="shape=connector;rounded=0;orthogonalLoop=1;jettySize=auto;html=1;exitX=0.5;exitY=1;exitDx=0;exitDy=0;strokeColor=default;align=center;verticalAlign=middle;fontFamily=Helvetica;fontSize=11;fontColor=default;labelBackgroundColor=default;startArrow=none;startFill=0;endArrow=classic;" parent="1" source="hkvhb1X0sHViUeXnGfo4-31" target="hkvhb1X0sHViUeXnGfo4-22" edge="1">
          <mxGeometry relative="1" as="geometry" />
        </mxCell>
        <mxCell id="hkvhb1X0sHViUeXnGfo4-31" value="D" style="rounded=0;whiteSpace=wrap;html=1;" parent="1" vertex="1">
          <mxGeometry x="120" y="40" width="40" height="40" as="geometry" />
        </mxCell>
        <mxCell id="hkvhb1X0sHViUeXnGfo4-40" style="edgeStyle=none;shape=connector;rounded=0;orthogonalLoop=1;jettySize=auto;html=1;exitX=0.5;exitY=1;exitDx=0;exitDy=0;strokeColor=default;align=center;verticalAlign=middle;fontFamily=Helvetica;fontSize=11;fontColor=default;labelBackgroundColor=default;startArrow=none;startFill=0;endArrow=classic;" parent="1" source="hkvhb1X0sHViUeXnGfo4-32" target="hkvhb1X0sHViUeXnGfo4-24" edge="1">
          <mxGeometry relative="1" as="geometry" />
        </mxCell>
        <mxCell id="hkvhb1X0sHViUeXnGfo4-32" value="D" style="rounded=0;whiteSpace=wrap;html=1;" parent="1" vertex="1">
          <mxGeometry x="600" y="40" width="40" height="40" as="geometry" />
        </mxCell>
        <mxCell id="UPGkTEGfNmWBVER3Gdnw-2" value="is a tcpdump container" style="text;html=1;align=center;verticalAlign=middle;whiteSpace=wrap;rounded=0;" vertex="1" parent="1">
          <mxGeometry x="940" y="355" width="60" height="30" as="geometry" />
        </mxCell>
      </root>
    </mxGraphModel>
  </diagram>
</mxfile>
